<svg width="50" height="50" viewBox="0 0 185 185"><g id="SvgjsG1070" featurekey="symbolContainer" transform="matrix(1.888558824758015,0,0,1.888558824758015,0,0)" fill="#ffffff"><path xmlns="http://www.w3.org/2000/svg" d="M74 .7h22.2v32.8h.6V0H74v.7zM.7 33.5V.7h22.1V0H0v33.5h.7zm22.1 62.7H.7V63.3H0v33.5h22.8v-.6zm73.4-32.9v32.9H74v.6h22.8V63.3h-.6z"></path></g><g id="SvgjsG1071" featurekey="monogramFeature-0" transform="matrix(2.831715070522515,0,0,2.831715070522515,48,-23.237857627850993)" fill="#ffffff"><path d="M13.92 61.14 c-8.7 0 -13.92 -3.78 -13.92 -8.46 c0 -6.48 7.56 -9 9.18 -3.48 c-4.8 4.8 -1.8 10.14 4.74 10.14 c9.54 0 16.02 -13.08 5.64 -16.02 l-7.26 -2.22 c-5.52 -1.62 -7.86 -3.84 -7.92 -7.5 c0 -7.32 7.14 -13.74 15.3 -13.74 c6.3 0 10.14 2.4 10.2 6.24 c0 5.04 -6.24 7.56 -6.96 2.82 c4.8 -3.3 1.62 -7.26 -3.3 -7.26 c-7.92 0 -14.94 9.3 -6.36 11.88 l10.68 3.24 c4.62 1.5 6.96 4.26 6.96 8.22 c0 8.52 -7.98 16.14 -16.98 16.14 z"></path></g></svg>
